
<svg version="1.1" xmlns="http://www.w3.org/2000/svg" xmlns:xlink="http://www.w3.org/1999/xlink" x="0px" y="0px" viewBox="0 0 1000 1000" enable-background="new 0 0 1000 1000" xml:space="preserve">
<g><g><g><path d="M492.8,766.4c6.9,0,25.4-7,45.4-7c24.8,0,51.2,7,51.2,7s-43.5-37-58.9-37c-15.4,0-37.6,14.4-37.6,14.4s-17.7-13.5-30.4-14.4c-12.7-0.9-66.2,37-66.2,37s31.8-8.2,59.8-8.2C471.8,758.2,487.2,766.4,492.8,766.4z"/><path d="M492.8,816.6c60.3,0,96.6-50.2,96.6-50.2s-21.5,13-53,14.7c-13.1,0.7-27.9-1.8-43.6-1.8c-13,0-26.2,3.5-37.4,3c-35.3-1.6-59.2-15.9-59.2-15.9S432.5,816.6,492.8,816.6z"/><path d="M177.7,417.9c2-64.9,23.7-124.8,59.3-174.2c74.8-22.8,172.9-27.9,268.5-5.1c-54.8,11.9-106,38.5-148.8,78.8c-41.6,39.1-71.7,88.1-86.3,136.6l-0.2,0.5c7.7,4.3,16.9,9.2,26.9,13.8c38.8-69.1,111.9-115.8,195.8-115.8c41.6,0,80.4,11.7,113.9,31.6c-3.3,14.3-4,29.4-1.3,43.9l2.8,13.9l-2.3,4.6c-7.9,19.3-7.9,40.4-1.7,60.3c2.8-3.2,7.4-5.9,13.2-8.4c-3.6-14.3-3.4-30.3,3-45.9c12.8-31.2,85.1,3.5,85.1,3.5s-68.6-59.4-84.8-30.9c-9.3-49.5,25.6-106.8,79-95C657.5,369.1,720.3,441,720.3,441s-23.3-78.4-6-97.7c25.6-28.8,84.4,15.4,84.8,57.9c-20.3-1.5-39.6,25-50.1,42.6l0.5-0.3c21.8-12,41-16.8,56.5-20.7c5.7-1.4,10.8-2.7,15.3-4.2c5.5-1.9,11.9-7.1,19.1-15c-12.4-181-163.3-324.6-347.4-324.6c-178.5,0-326,134.9-346.1,308.2C158.8,404,169.3,414.5,177.7,417.9z M807.7,417.6l0.2,1.8l-1.2-1.9L807.7,417.6z M627.1,341.6c-2.8,3.3-4.8,7.3-7.1,11c-37.3-19.6-80.6-29.2-127.2-29.2c-43.7,0-84.8,8.4-120.5,25.6c2.4-2.4,4.6-5,7.1-7.3c57-53.7,130.2-80.9,206.3-76.5c30.2,13,59.2,29.8,86.2,49.9C654.8,318.4,639.1,327.1,627.1,341.6z M492.8,112.1c150.1,0,275.8,105.5,307.4,246.2c-15.3-22.8-40.6-40.1-65-40.1l-6.8,0.8C600.4,199.7,413,174.1,274.3,200.6C331,146,408,112.1,492.8,112.1z"/><path d="M671,557.9L671,557.9c-9.3,0-20-1.9-30.4-5c5.7,3.6,11.9,6.7,18.8,8.8l19.1,3.8c0.5,5.2,1.8,10.2,3.9,14.7c5.2,11.4,15.3,18.9,27,23.9c2-4.4,4-9,6.3-14.2c-8.7-3.7-15.7-9.1-19-16.4c-2.6-5.6-2.9-12.8-2.3-20.5C686.1,555.6,678,557.7,671,557.9z"/><path d="M655.9,793.2c-3.8,0-9-1-14.2-4.8c-46.5,64.5-105.2,110.6-149,110.6c-42.7,0-99.8-43.9-145.8-106.1l-2.9,0.3c-9.1,0-17.7-4.9-26.4-13.8c8.3,14.4,15,27.6,19.2,39.5c54,62.9,118.6,102.2,155.9,102.2c43.3,0,123.2-52.9,180.9-134.3C667.9,790.9,662,793.2,655.9,793.2z"/><path d="M241.8,651.8c11.7-6.5,24.3,17.7,38.1,42.7c22.2,40.1,53.6,101.5,72.5,80.9c18.4-20-42.7-98.1-70.1-156.4c-10.4-22.1-27.9-58.1-24-80c4-21.9,49.4,4.6,70.8,5.1c21.4,0.5,57.5-12.8,56.9-26.8c-0.3-7.6-38.9-14.8-75.1-28.3c-30.3-11.2-58.4-29-67-33.7c-28.7-15.8-53.4-18.4-69.6-23.9c-13.9-4.8-28.6-20.6-44.2-43.8L10,457.1c16.1,28.9,28.6,56.7,31.9,78.3c10.8,69.8,40.5,102.3,50.1,132c11,34,58,145.5,83.3,149.1c28.8,4.1-49.5-114.7-28.9-122.5c7.2-2.8,20.9,29.9,36.1,62.5c20.7,44.5,49.9,109.8,65.7,102.7c40.6-18.4-86.2-175-59.1-179.1c9.7-1.5,35.4,39.1,57.5,80c24.9,46.2,60.8,108.3,78,89.7c14.6-15.8-24.2-71.7-50-115.1C251.8,696,232.2,657.1,241.8,651.8z"/><path d="M869.8,387.6c-15.6,23.2-30.3,39-44.2,43.8c-16.2,5.5-40.8,8.1-69.6,23.9c-8.6,4.7-36.7,22.5-67,33.7c-36.2,13.4-74.9,20.7-75.2,28.3c-0.5,14,35.5,27.3,57,26.8c21.3-0.5,66.8-27,70.8-5.1c4,21.9-13.6,57.9-24,79.9c-27.4,58.2-88.5,136.4-70.1,156.4c18.9,20.7,50.3-40.8,72.5-80.9c13.9-25,26.4-49.2,38.2-42.7c9.6,5.3-9.9,44.2-32.8,82.7c-25.8,43.4-64.5,99.4-49.9,115.2c17.2,18.6,53.1-43.5,78-89.6c22.1-40.9,47.8-81.5,57.5-80.1c27.1,4.2-99.8,160.8-59.1,179.1c15.8,7.1,45-58.2,65.7-102.7c15.2-32.6,28.9-65.3,36.1-62.5c20.6,7.8-57.6,126.6-28.9,122.5C850,812.8,897,701.3,908,667.3c9.6-29.7,39.3-62.2,50.1-132c3.4-21.5,15.8-49.4,31.9-78.3L869.8,387.6z"/><path d="M570.1,567.7c-17.3,8.3-21.8,27-22.9,34.3c-1.1,7.4,14.6,2.7,15.1-1.9c0.3-3.3-0.9-8.4,7.2-15.9l0.3,4.7c6.2,10.7,19.9,14.4,30.5,8.2c10.7-6.2,14.3-19.8,8.3-30.4c16.6-2.6,34.3-3,34.3-3S593.3,556.4,570.1,567.7z"/><path d="M636.4,592.8c0,0-15.7,7.3-29.5,10.1c-12.4,2.6-43.4,4-43.4,4s26.5,3.8,40.6,3.8C618.1,610.7,636.4,592.8,636.4,592.8z"/><path d="M385.2,597.1c10.7,6.2,24.4,2.5,30.6-8.2l0.2-4.7c8.1,7.6,6.8,12.7,7.2,15.9c0.5,4.7,16.2,9.3,15.1,1.9c-1.1-7.4-5.5-26-22.8-34.3c-23.2-11.3-72.8-4-72.8-4s17.7,0.4,34.3,3C370.9,577.3,374.6,590.9,385.2,597.1z"/><path d="M422.1,606.9c0,0-31-1.4-43.4-4c-13.8-2.9-29.5-10.1-29.5-10.1s18.4,17.9,32.4,17.9C395.6,610.7,422.1,606.9,422.1,606.9z"/></g></g><g></g><g></g><g></g><g></g><g></g><g></g><g></g><g></g><g></g><g></g><g></g><g></g><g></g><g></g><g></g></g>
</svg>