<svg id="svg" version="1.1" xmlns="http://www.w3.org/2000/svg" xmlns:xlink="http://www.w3.org/1999/xlink" width="400" height="219.78021978021977" viewBox="0, 0, 400,219.78021978021977"><g id="svgg"><path id="path0" d="M8.791 110.989 L 8.791 158.242 15.329 158.242 L 21.866 158.242 22.472 123.714 L 23.077 89.186 50.549 123.693 C 74.010 153.161,78.905 158.203,84.066 158.221 L 90.110 158.242 90.110 110.989 L 90.110 63.736 83.571 63.736 L 77.032 63.736 76.428 98.878 L 75.824 134.019 48.352 99.032 C 25.057 69.365,19.960 64.020,14.835 63.890 L 8.791 63.736 8.791 110.989 M130.769 67.071 C 80.621 94.075,107.968 173.322,162.283 158.391 C 199.027 148.290,207.353 92.032,175.247 70.786 C 164.072 63.390,141.159 61.477,130.769 67.071 M231.868 67.071 C 181.719 94.075,209.067 173.322,263.382 158.391 C 300.126 148.290,308.451 92.032,276.346 70.786 C 265.171 63.390,242.258 61.477,231.868 67.071 M309.890 110.989 L 309.890 158.242 316.428 158.242 L 322.965 158.242 323.571 123.714 L 324.176 89.186 351.648 123.693 C 375.109 153.161,380.003 158.203,385.165 158.221 L 391.209 158.242 391.209 110.989 L 391.209 63.736 384.670 63.736 L 378.131 63.736 377.527 98.878 L 376.923 134.019 349.451 99.032 C 326.156 69.365,321.059 64.020,315.934 63.890 L 309.890 63.736 309.890 110.989 M167.913 81.421 C 188.416 99.423,185.140 134.807,161.952 145.810 C 132.094 159.979,105.071 118.477,124.675 88.558 C 134.515 73.541,155.072 70.147,167.913 81.421 M269.012 81.421 C 289.515 99.423,286.239 134.807,263.051 145.810 C 233.193 159.979,206.170 118.477,225.773 88.558 C 235.613 73.541,256.171 70.147,269.012 81.421 " stroke="none" fill="#000000" fill-rule="evenodd"></path></g></svg>