<?xml version="1.0" encoding="UTF-8"?>
<svg id="icon-creator" xmlns="http://www.w3.org/2000/svg" xmlns:xlink="http://www.w3.org/1999/xlink" viewBox="0 0 231.7 231.7">
  <defs>
    <style>
      .cls-1 {
        fill: url(#linear-gradient);
      }

      .cls-2 {
        fill: none;
        stroke: #fff;
        stroke-linecap: round;
        stroke-linejoin: round;
        stroke-width: 5.62px;
      }
    </style>
    <linearGradient id="linear-gradient" x1="0" y1="115.85" x2="231.7" y2="115.85" gradientTransform="matrix(1, 0, 0, 1, 0, 0)" gradientUnits="userSpaceOnUse">
      <stop offset="0" stop-color="#dea9a9"/>
      <stop offset=".19" stop-color="#eec4c8"/>
      <stop offset=".49" stop-color="#c59696"/>
      <stop offset=".83" stop-color="#eec4c8"/>
    </linearGradient>
  </defs>
  <circle id="aesthetics-icon-active" class="cls-1" cx="115.85" cy="115.85" r="115.85"/>
  <g id="woman-white">
    <path class="cls-2" d="M116.63,60.53s-72.01,12.71-45.16,52.52"/>
    <path class="cls-2" d="M96.57,86.79s-55.09,36.3-12.05,65.73c0,0-16.79-32.95,28.24-50.68,0,0,51.49-27.79,24.74-48.49-21.84-15.77-47.75-2.72-59.09,21.56"/>
    <path class="cls-2" d="M112.79,101.84s50.74,14.55,35.75,50.68c0,0,41.9-48.13-3.29-86.97,0,0,5.03,14.72-32.46,36.29Z"/>
    <path class="cls-2" d="M148.54,152.52c-35.92,73.58-63.99,0-63.99,0"/>
    <path class="cls-2" d="M142.72,137.36c-1.98,1-4.48-.79-5.91,1.28-2.78,3.85-8.15,4.72-12,1.94-.23-.16-.45-.34-.66-.53"/>
    <path class="cls-2" d="M135.52,140.16c.76,1.21,2.06,1.98,3.49,2.05"/>
    <path class="cls-2" d="M89,137.36c1.97,1,4.48-.79,5.91,1.28,2.78,3.85,8.15,4.72,12,1.94,.23-.16,.45-.34,.66-.53"/>
    <path class="cls-2" d="M96.17,140.16c-.76,1.21-2.06,1.98-3.48,2.05"/>
  </g>
</svg>