<?xml version="1.0" encoding="UTF-8"?><svg id="Option_2" xmlns="http://www.w3.org/2000/svg" viewBox="0 0 1080 1080"><circle cx="502.37" cy="540" r="364.6" fill="#d0e5e4" opacity=".5"/><line x1="732.21" y1="439.12" x2="739.41" y2="452.79" fill="none"/><g><g><g><path d="M787.61,320.74h29.27c3.57,0,6.47,2.9,6.47,6.47v175.72h-42.22v-175.72c0-3.57,2.9-6.47,6.47-6.47Z" transform="translate(791.73 1313.56) rotate(-116.51)" fill="none" stroke="#0e837c" stroke-miterlimit="10" stroke-width="10"/><line x1="900.35" y1="404.43" x2="867.73" y2="339.04" fill="none" stroke="#0e837c" stroke-miterlimit="10" stroke-width="10"/><line x1="835.78" y1="418.7" x2="816.94" y2="380.93" fill="none" stroke="#0e837c" stroke-miterlimit="10" stroke-width="10"/><rect x="916.4" y="307.29" width="11.92" height="87.19" transform="translate(1020.01 1332.89) rotate(-116.51)" fill="#0e837c"/><rect x="934.88" y="326.59" width="62.71" height="8.29" rx="3.38" ry="3.38" transform="translate(1101.5 1343.02) rotate(-116.51)" fill="#0e837c"/><path d="M717.1,445.25l7.71,15.46-53.08,22.17c-2.29,.96-4.93-.03-6.04-2.25h0c-1.11-2.22-.31-4.91,1.83-6.17l49.59-29.21Z" fill="#0e837c"/><line x1="720.99" y1="453.04" x2="600.29" y2="513.24" fill="none" stroke="#0e837c" stroke-miterlimit="10" stroke-width="4"/></g><g><path d="M406.39,446.48c-1.75-.46-3.55-.72-5.39-.72-15.68,0-28.39,17.43-28.39,38.92s12.71,38.92,28.39,38.92c3.87,0,7.56-1.07,10.93-3,15.88,66.81,60,114.88,111.97,114.88s95.29-47.19,111.53-113.04c2.17,.73,4.43,1.16,6.77,1.16,15.68,0,28.39-17.43,28.39-38.92s-12.71-38.92-28.39-38.92c-.29,0-.57,.05-.85,.06" fill="none" stroke="#0e837c" stroke-miterlimit="10" stroke-width="10"/><path d="M647.18,446.36c-8.98-3.49-13.53,5.97-16.27,11.64-2.73,5.67-4.16,9.93-5.42,16.11-16.77-14.78-41.87-37.79-55.15-80.64-3.95-12.76-10.55-37.13-11.23-50.07-.12-2.33-3.14-3.19-4.3-1.18-11.89,20.62-19.72,42-65.79,85.73-17.61,16.71-49.73,27.9-66.75,43.58,1.55-10.1-5.38-21.5-17.77-25.79" fill="none" stroke="#0e837c" stroke-miterlimit="10" stroke-width="10"/><path d="M478.27,622.39c-50.41-2.45-89.37-9.42-122.24-22.79-32.87-13.37-63.01-32.24-92.94-51.01,14.37-10.94,29.05-22.22,38.54-37.36,6.77-10.79,18.01-28.18,22.56-40,35.84-93.18,24.45-112.31,62.12-161.27,30.31-39.4,70.4-71,120.84-75.78,12.85-1.22,26.07-1.07,38.34,2.85,9.61,3.08,14.1,12.74,22.51,17.42,0,0,45.28-.64,70.37,17.28,51.22,36.58,66.22,119.96,88.87,177.07,13.45,33.91,28.61,77.46,64.33,88.35-14.26,19.67-62.67,41.48-86.1,49.33-55.12,18.46-67.23,17.94-121.49,26.82" fill="none" stroke="#0e837c" stroke-miterlimit="10" stroke-width="10"/></g><path d="M491.09,626.8l-6.12,44.96c-6.14,45.08-38.18,82.35-81.83,95.18h-.04s25.15,11.02,25.15,11.02c73.2,32.05,156.82,30.12,228.46-5.29l12.57-6.22h0c-46.02-14.19-80.09-53.13-88.04-100.63l-7.12-42.55" fill="none" stroke="#0e837c" stroke-miterlimit="10" stroke-width="10"/><path d="M403.13,766.94s-108.33-7.92-140.05,96.32h481.21" fill="none" stroke="#0e837c" stroke-linecap="round" stroke-miterlimit="10" stroke-width="10"/><path d="M664.29,766.94s108.33-7.92,140.05,96.32H323.13" fill="none" stroke="#0e837c" stroke-linecap="round" stroke-miterlimit="10" stroke-width="10"/><circle cx="590.34" cy="521.97" r="28.86" fill="none" stroke="#c2995f" stroke-dasharray="0 13" stroke-linecap="round" stroke-linejoin="round" stroke-width="5"/><circle cx="459.13" cy="521.97" r="28.86" fill="none" stroke="#c2995f" stroke-dasharray="0 13" stroke-linecap="round" stroke-linejoin="round" stroke-width="5"/></g><g><g><line x1="834.49" y1="563.19" x2="834.49" y2="592.12" fill="none" stroke="#c2995f" stroke-linecap="round" stroke-linejoin="round" stroke-width="10"/><line x1="820.33" y1="577.65" x2="848.65" y2="577.65" fill="none" stroke="#c2995f" stroke-linecap="round" stroke-linejoin="round" stroke-width="10"/></g><g><line x1="320.64" y1="652.57" x2="320.64" y2="681.5" fill="none" stroke="#c2995f" stroke-linecap="round" stroke-linejoin="round" stroke-width="10"/><line x1="306.48" y1="667.04" x2="334.8" y2="667.04" fill="none" stroke="#c2995f" stroke-linecap="round" stroke-linejoin="round" stroke-width="10"/></g><circle cx="816.63" cy="667.04" r="11.9" fill="none" stroke="#c2995f" stroke-linecap="round" stroke-linejoin="round" stroke-width="10"/><circle cx="220.69" cy="411.84" r="11.9" fill="none" stroke="#c2995f" stroke-linecap="round" stroke-linejoin="round" stroke-width="10"/></g></g></svg>