<svg viewBox="0 0 216 216" xmlns="http://www.w3.org/2000/svg"><path d="m0 0h216v216h-216z" fill="none"/><path d="m174.4 86.7h-22.2l-13-19.6c-.7-1-1.9-1.6-3.2-1.6-1.3.1-2.4.8-2.9 1.9l-24.7 49.3-11.2-27.8c-.5-1.3-1.8-2.2-3.3-2.2h-35.2c-1.9 0-3.5 1.6-3.5 3.5s1.6 3.5 3.5 3.5h32.8l13.2 33c.5 1.3 1.7 2.2 3.1 2.2h.1c1.3 0 2.6-.7 3.2-1.9l25.5-50.9 10.7 16.1c.7 1 1.8 1.6 2.9 1.6h24.1s2.8-.6 2.8-3.6c.1-2.7-2.3-3.4-2.7-3.5z" fill="#0bb5ff"/><path d="m150 27.6c-18.9 0-34 14.2-41.9 23.4-7.8-9.3-22.9-23.4-42-23.4-27.2 0-45.5 19.7-45.5 49 0 52 80 106.8 83.4 109.1l4 2.8 4-2.3c3.4-2.3 83.5-57 83.5-109.6-.1-29.4-18.3-49-45.5-49zm-42 152.3s-80.4-54.4-80.4-103.4c0-24.5 14-42 38.5-42 24.2 0 42 28 42 28s18.1-28 42-28c24.5 0 38.5 17.5 38.5 42-.2 49.6-80.6 103.4-80.6 103.4z" fill="#004dce"/></svg>