<svg xmlns="http://www.w3.org/2000/svg" viewBox="0 0 24 24" fill="#ffffff" width="24" height="24">
  <path d="M 12 2 C 6.477 2 2 6.477 2 12 C 2 17.523 6.477 22 12 22 C 17.523 22 22 17.523 22 12 C 22 6.477 17.523 2 12 2 Z M 12 4 C 16.418 4 20 7.582 20 12 C 20 16.418 16.418 20 12 20 C 7.582 20 4 16.418 4 12 C 4 7.582 7.582 4 12 4 Z M 12 6 C 8.691 6 6 8.691 6 12 C 6 15.309 8.691 18 12 18 C 15.309 18 18 15.309 18 12 C 18 8.691 15.309 6 12 6 Z M 12 8 A 4 4 0 0 1 12 16 A 4 4 0 0 1 12 8 Z"/>
  <path d="M 16.5 4.8007812 L 16.5 7.5 L 14.800781 7.5 L 14.800781 4.8007812 L 16.5 4.8007812 z M 7.5 4.8007812 L 7.5 7.5 L 4.8007812 7.5 L 4.8007812 4.8007812 L 7.5 4.8007812 z M 4.8007812 9 L 7.5 9 L 7.5 16.5 L 4.8007812 16.5 L 4.8007812 9 z M 9 9 L 9 16.5 L 16.5 16.5 L 16.5 9 L 9 9 z M 16.5 11.699219 L 16.5 16.5 L 14.800781 16.5 L 14.800781 11.699219 L 16.5 11.699219 z"/>
</svg>
