<svg xmlns="http://www.w3.org/2000/svg" width="120" height="120" viewBox="0 0 120 120">
  <circle cx="60" cy="60" r="50" fill="#fff" />
  <path d="M85.2 22H34.8C27.1 22 22 27.1 22 34.8v50.4C22 92.9 27.1 98 34.8 98h50.4c7.7 0 13.8-5.1 13.8-13.8V34.8C99 27.1 93.9 22 86.2 22zm4.3 64.2c0 2.4-1.9 4.3-4.3 4.3H34.8c-2.4 0-4.3-1.9-4.3-4.3V34.8c0-2.4 1.9-4.3 4.3-4.3h50.4c2.4 0 4.3 1.9 4.3 4.3v50.4z" fill="#E1306C"/>
  <path d="M60 36.6c-12.5 0-22.6 10.1-22.6 22.6S47.5 81.8 60 81.8 82.6 71.7 82.6 59.2 72.5 36.6 60 36.6zm0 37.8c-9 0-16.3-7.3-16.3-16.3S51 42.8 60 42.8 76.3 50.1 76.3 59.2 69 74.4 60 74.4z" fill="#E1306C"/>
  <path d="M83.4 30.4c-1.7 0-3.2 0.6-4.4 1.8s-1.8 2.7-1.8 4.4c0 1.7 0.6 3.2 1.8 4.4s2.7 1.8 4.4 1.8c1.7 0 3.2-0.6 4.4-1.8s1.8-2.7 1.8-4.4c0-1.7-0.6-3.2-1.8-4.4s-2.7-1.8-4.4-1.8zm0 6.1c-0.9 0-1.6-0.3-2.1-0.9s-0.8-1.4-0.8-2.3c0-0.9 0.3-1.6 0.8-2.2s1.2-0.9 2.1-0.9c0.9 0 1.6 0.3 2.1 0.9s0.8 1.4 0.8 2.2c0 0.9-0.3 1.6-0.8 2.3s-1.2 0.9-2.1 0.9z" fill="#E1306C"/>
</svg>